<svg xmlns="http://www.w3.org/2000/svg" viewBox="0 0 512 512" role="img" aria-label="US Citizenship Test icon">
  <defs>
    <linearGradient id="bg" x1="0" y1="0" x2="0" y2="1">
      <stop offset="0%" stop-color="#1d4ed8"/>
      <stop offset="100%" stop-color="#1e40af"/>
    </linearGradient>
  </defs>

  <rect x="20" y="20" width="472" height="472" rx="96" fill="url(#bg)"/>

  <g transform="translate(84 108)">
    <rect width="344" height="296" rx="24" fill="#ffffff"/>
    <rect width="344" height="36" rx="24" fill="#b91c1c"/>
    <rect y="52" width="344" height="18" fill="#b91c1c"/>
    <rect y="88" width="344" height="18" fill="#b91c1c"/>
    <rect y="124" width="344" height="18" fill="#b91c1c"/>
    <rect y="160" width="344" height="18" fill="#b91c1c"/>
    <rect y="196" width="344" height="18" fill="#b91c1c"/>
    <rect y="232" width="344" height="18" fill="#b91c1c"/>

    <rect width="148" height="124" rx="16" fill="#1e3a8a"/>
    <g fill="#ffffff" transform="translate(18 18)">
      <circle cx="12" cy="10" r="4"/>
      <circle cx="36" cy="10" r="4"/>
      <circle cx="60" cy="10" r="4"/>
      <circle cx="84" cy="10" r="4"/>
      <circle cx="108" cy="10" r="4"/>
      <circle cx="12" cy="34" r="4"/>
      <circle cx="36" cy="34" r="4"/>
      <circle cx="60" cy="34" r="4"/>
      <circle cx="84" cy="34" r="4"/>
      <circle cx="108" cy="34" r="4"/>
      <circle cx="12" cy="58" r="4"/>
      <circle cx="36" cy="58" r="4"/>
      <circle cx="60" cy="58" r="4"/>
      <circle cx="84" cy="58" r="4"/>
      <circle cx="108" cy="58" r="4"/>
      <circle cx="12" cy="82" r="4"/>
      <circle cx="36" cy="82" r="4"/>
      <circle cx="60" cy="82" r="4"/>
      <circle cx="84" cy="82" r="4"/>
      <circle cx="108" cy="82" r="4"/>
    </g>

    <text x="172" y="282" text-anchor="middle" font-family="Inter, system-ui, sans-serif" font-size="36" font-weight="700" fill="#0f172a">Civics</text>
  </g>
</svg>
